<svg width="39" height="38" viewBox="0 0 39 38" fill="none" xmlns="http://www.w3.org/2000/svg">
<circle cx="19.0061" cy="19" r="19" fill="#C4C4C4"/>
<path d="M19.0061 9C13.4861 9 9.0061 13.48 9.0061 19C9.0061 24.52 13.4861 29 19.0061 29C24.5261 29 29.0061 24.52 29.0061 19C29.0061 13.48 24.5261 9 19.0061 9ZM11.0061 19C11.0061 14.58 14.5861 11 19.0061 11C20.8561 11 22.5561 11.63 23.9061 12.69L12.6961 23.9C11.6361 22.55 11.0061 20.85 11.0061 19ZM19.0061 27C17.1561 27 15.4561 26.37 14.1061 25.31L25.3161 14.1C26.3761 15.45 27.0061 17.15 27.0061 19C27.0061 23.42 23.4261 27 19.0061 27Z" fill="white"/>
</svg>
