<?xml version="1.0" standalone="no"?>
<!DOCTYPE svg PUBLIC "-//W3C//DTD SVG 20010904//EN"
 "http://www.w3.org/TR/2001/REC-SVG-20010904/DTD/svg10.dtd">
<svg version="1.0" xmlns="http://www.w3.org/2000/svg"
 width="512.000000pt" height="512.000000pt" viewBox="0 0 512.000000 512.000000"
 preserveAspectRatio="xMidYMid meet">

<g transform="translate(0.000000,512.000000) scale(0.100000,-0.100000)"
fill="#000000" stroke="none">
<path d="M1240 4885 c-493 -78 -903 -421 -1111 -931 -259 -633 -115 -1370 389
-1994 109 -135 368 -397 572 -579 207 -185 355 -311 914 -779 336 -281 429
-355 469 -368 66 -22 151 -15 210 17 60 31 1013 831 1342 1125 203 181 471
453 577 584 349 434 536 946 515 1405 -9 185 -21 245 -52 273 -33 28 -57 28
-91 -1 l-27 -24 13 -142 c45 -492 -117 -974 -478 -1420 -218 -270 -508 -536
-1362 -1251 -206 -172 -400 -335 -430 -361 -67 -57 -90 -69 -130 -69 -44 0
-60 10 -195 125 -66 55 -246 206 -400 335 -941 787 -1221 1055 -1457 1395
-162 233 -273 498 -328 783 -140 719 256 1470 888 1682 227 76 514 80 757 10
244 -69 416 -232 487 -460 18 -60 23 -98 23 -190 0 -131 -14 -185 -90 -359
-66 -152 -66 -155 54 -304 l100 -123 -25 -104 c-28 -119 -23 -150 27 -171 40
-16 76 1 93 44 23 54 59 243 53 269 -4 14 -49 78 -101 141 l-94 116 54 128
c114 273 111 487 -8 731 -79 162 -219 298 -382 372 -207 94 -530 133 -776 95z"/>
<path d="M3610 4856 c-84 -18 -207 -59 -273 -92 -189 -95 -364 -262 -465 -444
-17 -30 -85 -180 -152 -334 -153 -348 -156 -309 40 -466 77 -62 140 -115 140
-118 0 -8 -523 -922 -526 -919 -1 1 8 47 22 102 31 132 31 158 -2 184 -43 33
-86 26 -108 -18 -7 -14 -46 -171 -86 -349 -82 -359 -82 -364 -18 -395 32 -16
40 -16 70 -4 30 13 72 82 420 693 212 374 389 689 393 701 13 47 -19 86 -164
202 -77 62 -139 116 -137 120 3 4 48 106 101 227 126 285 165 359 234 441 139
165 325 277 535 319 120 25 314 15 426 -21 306 -98 573 -342 741 -680 34 -66
68 -128 76 -137 25 -28 78 -23 103 9 29 37 23 62 -50 208 -190 379 -512 658
-870 756 -97 27 -352 35 -450 15z"/>
</g>
</svg>
