<svg width="19" height="19" viewBox="0 0 19 19" fill="none" xmlns="http://www.w3.org/2000/svg">
<path d="M9.50001 12.0333C10.8991 12.0333 12.0333 10.8991 12.0333 9.50001C12.0333 8.10089 10.8991 6.96667 9.50001 6.96667C8.10089 6.96667 6.96667 8.10089 6.96667 9.50001C6.96667 10.8991 8.10089 12.0333 9.50001 12.0333Z" fill="#757575" fill-opacity="0.5"/>
<path d="M7.12501 1.58337L5.67626 3.16671H3.16668C2.29584 3.16671 1.58334 3.87921 1.58334 4.75004V14.25C1.58334 15.1209 2.29584 15.8334 3.16668 15.8334H15.8333C16.7042 15.8334 17.4167 15.1209 17.4167 14.25V4.75004C17.4167 3.87921 16.7042 3.16671 15.8333 3.16671H13.3238L11.875 1.58337H7.12501ZM9.50001 13.4584C7.31501 13.4584 5.54168 11.685 5.54168 9.50004C5.54168 7.31504 7.31501 5.54171 9.50001 5.54171C11.685 5.54171 13.4583 7.31504 13.4583 9.50004C13.4583 11.685 11.685 13.4584 9.50001 13.4584Z" fill="#757575" fill-opacity="0.5"/>
</svg>
