<?xml version="1.0" standalone="no"?>
<!DOCTYPE svg PUBLIC "-//W3C//DTD SVG 20010904//EN"
 "http://www.w3.org/TR/2001/REC-SVG-20010904/DTD/svg10.dtd">
<svg version="1.0" xmlns="http://www.w3.org/2000/svg"
 width="512.000000pt" height="512.000000pt" viewBox="0 0 512.000000 512.000000"
 preserveAspectRatio="xMidYMid meet">

<g transform="translate(0.000000,512.000000) scale(0.100000,-0.100000)"
fill="#000000" stroke="none">
<path d="M2504 5101 c-17 -11 -36 -34 -43 -52 -8 -23 -11 -462 -11 -1608 l0
-1575 -342 341 c-189 187 -354 344 -366 348 -94 28 -175 -75 -124 -157 37 -59
884 -896 915 -903 15 -4 39 -4 55 0 30 7 877 844 914 903 51 82 -30 185 -124
157 -12 -4 -177 -161 -365 -348 l-343 -341 0 1577 c0 1728 3 1629 -59 1661
-40 21 -69 20 -107 -3z"/>
<path d="M63 1695 c-64 -28 -63 -14 -63 -647 0 -632 1 -646 62 -762 48 -90
147 -185 238 -228 41 -20 99 -41 128 -47 37 -8 663 -11 2135 -11 2288 0 2141
-4 2269 61 79 40 183 143 226 225 61 116 62 130 62 762 0 638 2 620 -67 648
-41 18 -89 6 -119 -27 -18 -20 -19 -53 -24 -613 l-5 -591 -33 -67 c-37 -76
-82 -120 -162 -157 l-55 -26 -2095 0 -2095 0 -55 26 c-80 37 -125 81 -162 157
l-33 67 -5 591 c-5 649 -2 613 -67 641 -39 16 -40 16 -80 -2z"/>
</g>
</svg>
