<?xml version="1.0" standalone="no"?>
<!DOCTYPE svg PUBLIC "-//W3C//DTD SVG 20010904//EN"
 "http://www.w3.org/TR/2001/REC-SVG-20010904/DTD/svg10.dtd">
<svg version="1.0" xmlns="http://www.w3.org/2000/svg"
 width="512.000000pt" height="512.000000pt" viewBox="0 0 512.000000 512.000000"
 preserveAspectRatio="xMidYMid meet">

<g transform="translate(0.000000,512.000000) scale(0.100000,-0.100000)"
fill="#000000" stroke="none">
<path d="M830 5111 c-71 -23 -131 -74 -166 -141 -18 -34 -19 -113 -19 -2410
l0 -2375 22 -40 c49 -92 127 -139 228 -139 104 0 186 50 231 141 18 36 19 84
24 1180 l5 1142 45 24 c25 13 77 43 115 67 271 169 634 216 953 124 172 -50
311 -130 467 -269 119 -106 184 -153 287 -209 186 -101 351 -144 578 -153 263
-10 470 35 690 148 123 63 148 82 171 133 18 39 19 89 19 1046 0 959 -1 1007
-19 1046 -23 51 -70 85 -126 92 -35 4 -60 -3 -141 -41 -182 -82 -298 -111
-494 -122 -197 -12 -395 31 -572 122 -95 49 -172 104 -288 207 -203 181 -420
288 -670 332 -121 21 -415 15 -530 -11 -146 -33 -336 -111 -439 -181 -19 -13
-39 -24 -42 -24 -4 0 -9 30 -11 68 -6 106 -52 178 -141 223 -44 23 -137 33
-177 20z m121 -190 l29 -29 0 -2332 0 -2332 -29 -29 c-18 -17 -40 -29 -56 -29
-16 0 -38 12 -56 29 l-29 29 0 2332 0 2332 29 29 c18 17 40 29 56 29 16 0 38
-12 56 -29z m1272 -90 c193 -51 333 -128 500 -273 138 -121 228 -185 343 -241
357 -177 799 -181 1170 -12 l74 34 0 -969 0 -969 -112 -55 c-133 -64 -219 -92
-348 -111 -256 -39 -506 -1 -721 108 -101 52 -159 94 -293 211 -262 229 -513
331 -846 343 -286 11 -535 -51 -760 -188 l-80 -48 0 953 0 954 35 30 c130 115
338 213 520 247 119 22 414 14 518 -14z"/>
</g>
</svg>
