<?xml version="1.0" standalone="no"?>
<!DOCTYPE svg PUBLIC "-//W3C//DTD SVG 20010904//EN"
 "http://www.w3.org/TR/2001/REC-SVG-20010904/DTD/svg10.dtd">
<svg version="1.0" xmlns="http://www.w3.org/2000/svg"
 width="512.000000pt" height="512.000000pt" viewBox="0 0 512.000000 512.000000"
 preserveAspectRatio="xMidYMid meet">

<g transform="translate(0.000000,512.000000) scale(0.100000,-0.100000)"
fill="#000000" stroke="none">
<path d="M2315 5109 c-787 -76 -1502 -519 -1927 -1196 -469 -746 -515 -1705
-119 -2493 453 -902 1381 -1454 2381 -1417 745 28 1413 360 1895 942 241 291
443 714 519 1085 42 210 51 295 51 525 0 259 -17 403 -75 631 -49 193 -93 313
-185 499 -131 267 -269 460 -485 676 -210 210 -387 342 -635 470 -436 227
-935 324 -1420 278z m585 -184 c411 -60 817 -235 1145 -493 90 -71 316 -297
387 -388 150 -189 308 -476 382 -690 45 -133 91 -321 113 -464 24 -162 24
-501 -1 -665 -83 -541 -331 -1021 -721 -1393 -360 -344 -806 -561 -1310 -638
-164 -25 -503 -25 -665 -1 -423 65 -791 221 -1135 480 -96 73 -330 304 -407
403 -146 185 -306 472 -378 679 -96 273 -134 503 -134 805 0 394 69 699 239
1045 81 165 134 252 239 395 80 108 316 350 422 432 337 265 783 452 1184 497
52 6 111 13 130 15 72 9 409 -4 510 -19z"/>
<path d="M3218 3751 c-32 -10 -79 -33 -105 -49 -27 -17 -173 -156 -325 -309
-249 -251 -280 -285 -310 -348 -31 -67 -33 -75 -33 -185 0 -104 3 -120 28
-174 15 -33 26 -61 24 -63 -2 -2 -30 9 -63 24 -54 25 -70 28 -174 28 -109 0
-118 -2 -185 -33 -64 -30 -96 -59 -361 -325 -317 -318 -334 -341 -357 -471
-48 -279 208 -537 486 -489 133 23 155 39 473 357 262 261 295 298 325 361 33
67 34 74 34 185 0 104 -3 120 -28 174 -15 33 -26 61 -24 63 2 2 30 -9 63 -24
54 -25 70 -28 174 -28 111 0 118 1 185 34 63 30 100 63 356 320 160 160 298
306 312 331 60 105 72 254 29 367 -41 109 -135 203 -245 245 -76 30 -206 34
-279 9z m213 -163 c133 -39 208 -216 148 -348 -29 -64 -534 -571 -603 -605
-54 -27 -142 -34 -192 -15 l-27 11 86 88 c47 48 91 100 97 115 24 63 -44 129
-107 105 -15 -5 -66 -49 -114 -96 l-88 -86 -11 27 c-17 45 -12 136 11 186 29
64 534 571 603 605 56 28 132 33 197 13z m-1095 -1088 l27 -11 -91 -92 c-50
-51 -94 -105 -97 -119 -14 -57 46 -117 103 -103 14 3 68 47 119 97 l92 91 11
-27 c19 -50 12 -138 -15 -192 -32 -65 -529 -561 -595 -595 -60 -30 -157 -32
-220 -3 -121 56 -177 187 -135 315 16 49 42 78 289 327 299 301 326 322 427
322 32 0 70 -5 85 -10z"/>
</g>
</svg>
