<svg width="25" height="25" viewBox="0 0 25 25" fill="none" xmlns="http://www.w3.org/2000/svg">
<path d="M13.8889 21.7222H13.3889V22.2222V24.5H11.6111V17.1667H13.3889V19.4444V19.9444H13.8889H24.5V21.7222H13.8889ZM5.55556 11.6111H6.05556V11.1111V8.83333H7.83333V16.1667H6.05556V13.8889V13.3889H5.55556H0.5V11.6111H5.55556ZM19.4444 5.05556H18.9444V5.55556V7.83333H17.1667V0.5H18.9444V2.77778V3.27778H19.4444H24.5V5.05556H19.4444ZM7.83333 21.7222H0.5V19.9444H7.83333V21.7222ZM13.3889 5.05556H0.5V3.27778H13.3889V5.05556ZM11.6111 11.6111H24.5V13.3889H11.6111V11.6111Z" stroke="#757575"/>
</svg>
