<?xml version="1.0" standalone="no"?>
<!DOCTYPE svg PUBLIC "-//W3C//DTD SVG 20010904//EN"
 "http://www.w3.org/TR/2001/REC-SVG-20010904/DTD/svg10.dtd">
<svg version="1.0" xmlns="http://www.w3.org/2000/svg"
 width="512.000000pt" height="512.000000pt" viewBox="0 0 512.000000 512.000000"
 preserveAspectRatio="xMidYMid meet">

<g transform="translate(0.000000,512.000000) scale(0.100000,-0.100000)"
fill="#000000" stroke="none">
<path d="M2315 5109 c-797 -81 -1501 -518 -1927 -1196 -471 -748 -515 -1716
-115 -2503 455 -895 1383 -1445 2377 -1406 267 10 464 45 710 126 540 177
1010 534 1325 1005 224 337 357 690 417 1110 20 140 17 504 -5 660 -22 155
-81 393 -132 531 -45 123 -167 374 -231 474 -145 229 -367 479 -564 637 -370
296 -777 475 -1250 548 -125 19 -477 28 -605 14z m584 -184 c410 -60 818 -236
1145 -493 99 -77 330 -311 403 -407 154 -204 294 -461 367 -671 297 -865 92
-1800 -539 -2453 -935 -969 -2488 -971 -3425 -5 -191 196 -317 377 -435 619
-113 231 -185 461 -221 710 -25 165 -25 505 0 670 20 136 70 338 116 470 72
207 232 494 378 679 77 99 311 330 407 403 351 264 769 438 1165 482 52 6 111
13 130 15 72 9 409 -4 509 -19z"/>
<path d="M1395 3815 l-25 -24 0 -1146 0 -1146 25 -24 c37 -38 76 -33 132 18
253 228 1181 1095 1190 1111 10 17 12 -94 13 -537 l0 -559 29 -29 c40 -40 93
-36 128 10 18 23 18 2289 0 2312 -35 46 -88 50 -128 10 l-29 -29 0 -559 c0
-534 -1 -557 -18 -531 -13 20 -1007 948 -1190 1111 -51 45 -91 49 -127 12z
m674 -750 l451 -419 -27 -27 c-16 -14 -221 -205 -458 -424 -236 -219 -445
-412 -462 -429 l-33 -30 0 908 0 908 38 -34 c22 -18 242 -222 491 -453z"/>
<path d="M3613 3816 l-28 -24 0 -1147 0 -1147 29 -25 c24 -20 36 -24 65 -19
20 3 44 15 54 27 16 20 17 91 17 1166 l0 1144 -25 24 c-31 32 -75 32 -112 1z"/>
</g>
</svg>
