<svg width="41" height="41" viewBox="0 0 41 41" fill="none" xmlns="http://www.w3.org/2000/svg">
<circle cx="20.5" cy="20.5" r="20.5" fill="#C4C4C4" fill-opacity="0.5"/>
<path d="M28.1442 12.7768H23.9867L23.2261 10.822C23.1448 10.5823 22.9901 10.3741 22.784 10.2267C22.5778 10.0792 22.3305 9.99994 22.0768 10H18.9232C18.6695 10 18.4223 10.0794 18.2161 10.2268C18.01 10.3742 17.8553 10.5824 17.7739 10.822L17.0133 12.7768H12.8558C12.3636 12.7768 11.8916 12.9718 11.5436 13.319C11.1955 13.6662 11 14.1371 11 14.628V24.1487C11 24.6397 11.1955 25.1106 11.5436 25.4578C11.8916 25.805 12.3636 26 12.8558 26H28.1442C28.6364 26 29.1084 25.805 29.4564 25.4578C29.8045 25.1106 30 24.6397 30 24.1487V14.628C30 14.1371 29.8045 13.6662 29.4564 13.319C29.1084 12.9718 28.6364 12.7768 28.1442 12.7768V12.7768Z" fill="white" stroke="white" stroke-width="2" stroke-miterlimit="10"/>
<path d="M20.5 23C22.9853 23 25 20.9853 25 18.5C25 16.0147 22.9853 14 20.5 14C18.0147 14 16 16.0147 16 18.5C16 20.9853 18.0147 23 20.5 23Z" fill="white" stroke="#C4BBBD" stroke-miterlimit="10"/>
<path d="M5 24.138C5 27.6772 9.43086 30.6968 16.0654 31.7161L15.7735 34L19 31.4181L16.5359 28.039L16.2451 30.3144C10.4894 29.4228 6.35087 26.8554 6.35087 24.138C6.35087 22.9298 7.16912 21.7135 8.6736 20.6592V19C6.27053 20.4278 5 22.2031 5 24.138Z" fill="white"/>
<path d="M33.2824 19V20.6498C34.8044 21.6981 35.633 22.9055 35.633 24.1087C35.633 27.6234 28.9319 30.593 21 30.593V32C29.972 32 37 28.5337 37 24.1091C37.0004 22.211 35.6797 20.4015 33.2824 19V19Z" fill="white"/>
</svg>