<svg width="19" height="20" viewBox="0 0 19 20" fill="none" xmlns="http://www.w3.org/2000/svg">
    <path d="M9.31689 3.73265C10.0715 3.73265 10.6832 3.12093 10.6832 2.36633C10.6832 1.61173 10.0715 1 9.31689 1C8.56229 1 7.95056 1.61173 7.95056 2.36633C7.95056 3.12093 8.56229 3.73265 9.31689 3.73265Z" fill="white" stroke="white" stroke-width="2" stroke-miterlimit="10"/>
    <path d="M8.58858 11.2941C7.97385 10.6532 7.395 9.9822 6.82875 9.30047C6.26035 8.62063 5.71335 7.92297 5.17038 7.22175C4.63431 6.51482 4.10275 5.80409 3.59257 5.07531C3.08002 4.34866 2.58054 3.61108 2.11741 2.84285C2.05849 2.74465 2.03652 2.62865 2.05545 2.5157C2.07439 2.40276 2.13298 2.30026 2.22071 2.22665C2.30844 2.15304 2.41955 2.11313 2.53407 2.11409C2.64859 2.11506 2.75901 2.15684 2.84549 2.23192C3.52152 2.82146 4.1612 3.44142 4.78781 4.07254C5.4168 4.70153 6.0244 5.34833 6.62772 5.99894C7.22391 6.65526 7.81607 7.31513 8.38707 7.99307C8.96022 8.66887 9.52053 9.35559 10.045 10.0723C10.1866 10.2674 10.249 10.509 10.2196 10.7484C10.1902 10.9878 10.0711 11.207 9.8863 11.362C9.70155 11.517 9.46489 11.5962 9.22406 11.5836C8.98323 11.571 8.75614 11.4676 8.58858 11.2941V11.2941Z" fill="white"/>
    <path d="M14.4763 4.16016C16.3996 5.68355 17.6335 8.03957 17.6335 10.6836C17.6335 15.2768 13.91 19.0004 9.31677 19.0004C4.72354 19.0004 1 15.2768 1 10.6836C1 9.56463 1.22099 8.497 1.62186 7.52251" stroke="white" stroke-width="2" stroke-miterlimit="10" stroke-linecap="round"/>
</svg>